<?xml version="1.0" encoding="UTF-8" standalone="no"?>
<svg
   xmlns:dc="http://purl.org/dc/elements/1.1/"
   xmlns:cc="http://creativecommons.org/ns#"
   xmlns:rdf="http://www.w3.org/1999/02/22-rdf-syntax-ns#"
   xmlns:svg="http://www.w3.org/2000/svg"
   xmlns="http://www.w3.org/2000/svg"
   xmlns:sodipodi="http://sodipodi.sourceforge.net/DTD/sodipodi-0.dtd"
   xmlns:inkscape="http://www.inkscape.org/namespaces/inkscape"
   viewBox="0 0 1688 139"
   width="1688"
   height="139"
   version="1.1"
   id="svg6"
   sodipodi:docname="bg-header1-2.svg"
   inkscape:version="0.92.4 5da689c313, 2019-01-14">
  <metadata
     id="metadata12">
    <rdf:RDF>
      <cc:Work
         rdf:about="">
        <dc:format>image/svg+xml</dc:format>
        <dc:type
           rdf:resource="http://purl.org/dc/dcmitype/StillImage" />
        <dc:title></dc:title>
      </cc:Work>
    </rdf:RDF>
  </metadata>
  <defs
     id="defs10" />
  <sodipodi:namedview
     pagecolor="#ffffff"
     bordercolor="#666666"
     borderopacity="1"
     objecttolerance="10"
     gridtolerance="10"
     guidetolerance="10"
     inkscape:pageopacity="0"
     inkscape:pageshadow="2"
     inkscape:window-width="1366"
     inkscape:window-height="700"
     id="namedview8"
     showgrid="false"
     inkscape:zoom="0.33056872"
     inkscape:cx="860.74966"
     inkscape:cy="132.28796"
     inkscape:window-x="0"
     inkscape:window-y="0"
     inkscape:window-maximized="1"
     inkscape:current-layer="svg6" />
  <style
     id="style2">
		tspan { white-space:pre }
		.shp0 { fill: #6ca7fd } 
		.shp1 { fill: #ffffff } 
	</style>
  <path
     id="Прямоугольник, скругл. углы 1"
     class="shp0"
     d="M -0.83436825,75.288877 H 1669 V -11.150538 H -0.83436825 Z M 246.06329,38.40806 v 76.06668 c 0,6.36195 4.5147,11.52526 10.07746,11.52526 h 59.45698 c 5.56276,0 10.07746,-5.16331 10.07746,-11.52526 V 38.40806 c 0,-6.361941 -4.5147,-11.525255 -10.07746,-11.525255 h -59.45698 c -5.56276,0 -10.07746,5.163314 -10.07746,11.525255 z"
     inkscape:connector-curvature="0"
     style="fill:#6ca7fd;stroke-width:1.07770705" />
  <path
     id="Прямоугольник 3"
     class="shp1"
     d="M -12.390614,55.105127 C 600.35235,104.16439 1002.1825,-7.1338566 1702.6816,98.48 1696.53,45.06942 1696.53,16.131877 1696.53,-12.805665 c -569.3013,0 -1138.6026,0 -1707.893624,0 0,28.937542 0,57.86251 -1.01672,67.898215 z"
     inkscape:connector-curvature="0"
     style="fill:#ffffff;stroke-width:1.13646352" />
</svg>
